<svg width="70" height="70" viewBox="0 0 70 70" fill="none" xmlns="http://www.w3.org/2000/svg">
<path d="M13.125 48.125L16.2181 45.0319L8.37375 37.1875H26.25V32.8125H8.37375L16.2181 24.9681L13.125 21.875L0 35L13.125 48.125Z" fill="#FF9A62"/>
<path d="M34.9999 21.875C33.276 21.8726 31.5685 22.211 29.9756 22.8706C28.3828 23.5301 26.936 24.498 25.7184 25.7184L34.9999 35L25.7184 44.2816C27.2447 45.8076 29.1237 46.9337 31.1891 47.5601C33.2545 48.1865 35.4425 48.2939 37.5594 47.8727C39.6762 47.4516 41.6565 46.5149 43.3249 45.1457C44.9932 43.7765 46.2982 42.0169 47.1242 40.0229C47.9502 38.0289 48.2717 35.862 48.0602 33.7141C47.8488 31.5662 47.1109 29.5035 45.9119 27.7089C44.7129 25.9142 43.0899 24.443 41.1865 23.4254C39.2832 22.4078 37.1583 21.8753 34.9999 21.875Z" fill="#FF9A62"/>
<path d="M35 4.375C30.9785 4.37257 26.9962 5.1646 23.2816 6.7056C19.5671 8.2466 16.1935 10.5062 13.3547 13.3547L16.4479 16.4478C20.1179 12.774 24.7952 10.2713 29.8879 9.25633C34.9806 8.24132 40.26 8.75961 45.0581 10.7456C49.8562 12.7317 53.9575 16.0962 56.843 20.4135C59.7286 24.7309 61.2688 29.8071 61.2688 35C61.2688 40.1929 59.7286 45.2691 56.843 49.5865C53.9575 53.9038 49.8562 57.2683 45.0581 59.2544C40.26 61.2404 34.9806 61.7587 29.8879 60.7437C24.7952 59.7287 20.1179 57.226 16.4479 53.5522L13.3547 56.6453C16.9155 60.2056 21.2993 62.8328 26.1179 64.2941C30.9365 65.7554 36.0411 66.0058 40.9796 65.0231C45.9181 64.0403 50.538 61.8548 54.43 58.6601C58.3221 55.4654 61.3662 51.3601 63.2927 46.7079C65.2192 42.0557 65.9686 37.0002 65.4746 31.9892C64.9805 26.9782 63.2582 22.1664 60.4603 17.98C57.6624 13.7936 53.8752 10.3618 49.4341 7.9887C44.9931 5.61559 40.0354 4.37437 35 4.375Z" fill="#FF9A62"/>
</svg>
