<svg width="72" height="30" viewBox="0 0 72 30" fill="none" xmlns="http://www.w3.org/2000/svg">
<path d="M42.5 10.3372C40.9453 10.3372 39.7875 11.1006 39.7875 12.9378C39.7875 14.322 40.5506 15.2831 42.4161 15.2831C43.9975 15.2831 45.0717 14.3511 45.0717 12.8803C45.0717 11.2136 44.1106 10.3372 42.5 10.3372ZM39.3917 23.3097C39.0236 23.7611 38.657 24.2411 38.657 24.807C38.657 25.9367 40.0975 26.2767 42.0764 26.2767C43.7153 26.2767 45.9481 26.1617 45.9481 24.6378C45.9481 23.732 44.8739 23.6761 43.5167 23.5911L39.3917 23.3097ZM47.7564 10.4225C48.2642 11.0725 48.802 11.9772 48.802 13.277C48.802 16.4136 46.3433 18.2503 42.7833 18.2503C41.8781 18.2503 41.0586 18.1375 40.5506 17.9964L39.6175 19.4936L42.3867 19.6631C47.2761 19.9747 50.1575 20.1164 50.1575 23.8734C50.1575 27.1239 47.3042 28.9597 42.3867 28.9597C37.272 28.9597 35.322 27.6597 35.322 25.4275C35.322 24.1559 35.8872 23.4789 36.8764 22.5447C35.9436 22.1506 35.6331 21.4445 35.6331 20.6809C35.6331 20.0586 35.9436 19.4939 36.4531 18.9564C36.9614 18.4203 37.5264 17.8828 38.2047 17.2611C36.8203 16.5828 35.7742 15.1134 35.7742 13.0217C35.7742 9.77252 37.9222 7.54085 42.245 7.54085C43.4606 7.54085 44.1956 7.65252 44.8456 7.82335H50.3567V10.2245L47.7564 10.4225ZM55.3284 5.28724C53.7172 5.28724 52.7847 4.35391 52.7847 2.74252C52.7847 1.13335 53.717 0.256409 55.3284 0.256409C56.9672 0.256409 57.9 1.13335 57.9 2.74252C57.9 4.35391 56.9675 5.28724 55.3284 5.28724ZM51.6822 22.2697V20.0384L53.1239 19.8411C53.5197 19.7842 53.5758 19.6997 53.5758 19.275V10.9667C53.5758 10.6567 53.4914 10.4578 53.2078 10.3739L51.6822 9.83641L51.9928 7.54808H57.8431V19.275C57.8431 19.7278 57.8703 19.7842 58.2956 19.8414L59.7367 20.0386V22.2697H51.6822ZM70.912 21.1742C69.6964 21.7672 67.9161 22.3042 66.3047 22.3042C62.942 22.3042 61.6708 20.9492 61.6708 17.7542V10.3511C61.6708 10.1817 61.6709 10.0686 61.4439 10.0686H59.4661V7.5528C61.9536 7.26946 62.942 6.02613 63.2528 2.94585H65.9378V6.95974C65.9378 7.15696 65.9378 7.24224 66.1642 7.24224H70.1484V10.0681H65.9378V16.8217C65.9378 18.4889 66.3339 19.1384 67.8592 19.1384C68.6514 19.1384 69.47 18.9411 70.1481 18.6867L70.912 21.1742Z" fill="#2F2707"/>
<path d="M29.0403 13.7583L16.1192 0.838056C15.9422 0.661047 15.7321 0.520632 15.5009 0.424832C15.2696 0.329032 15.0218 0.279724 14.7715 0.279724C14.5212 0.279724 14.2734 0.329032 14.0422 0.424832C13.8109 0.520632 13.6008 0.661047 13.4239 0.838056L10.7408 3.52139L14.1444 6.92472C14.5445 6.78866 14.9747 6.76737 15.3863 6.86325C15.7978 6.95913 16.1743 7.16836 16.473 7.46722C16.7734 7.76798 16.9831 8.14715 17.0782 8.56142C17.1733 8.9757 17.1499 9.40837 17.0108 9.81L20.2905 13.0903C21.0842 12.8169 22 12.9939 22.6336 13.6286C22.8443 13.8391 23.0114 14.0891 23.1254 14.3642C23.2394 14.6394 23.2981 14.9343 23.2981 15.2321C23.2981 15.5299 23.2394 15.8248 23.1254 16.0999C23.0114 16.3751 22.8443 16.625 22.6336 16.8356C22.263 17.2065 21.7752 17.4376 21.2534 17.4894C20.7316 17.5412 20.208 17.4106 19.7716 17.1198C19.3353 16.829 19.0132 16.396 18.8602 15.8944C18.7072 15.3928 18.7327 14.8537 18.9325 14.3689L15.8736 11.31L15.8733 19.36C16.0951 19.4697 16.2976 19.6145 16.473 19.7889C16.6837 19.9995 16.8508 20.2495 16.9648 20.5247C17.0788 20.7998 17.1374 21.0948 17.1374 21.3926C17.1374 21.6905 17.0788 21.9854 16.9648 22.2606C16.8508 22.5358 16.6837 22.7858 16.473 22.9964C15.5869 23.8825 14.1508 23.8825 13.2661 22.9964C13.0018 22.7323 12.8068 22.4069 12.6986 22.0493C12.5903 21.6917 12.5721 21.3128 12.6455 20.9465C12.719 20.5801 12.8818 20.2376 13.1196 19.9493C13.3573 19.661 13.6626 19.436 14.0083 19.2942V11.1692C13.7302 11.0556 13.4778 10.8873 13.2661 10.6742C12.595 10.0039 12.4336 9.01917 12.7775 8.195L9.42249 4.83945L0.563042 13.6983C0.386007 13.8754 0.245575 14.0855 0.149763 14.3168C0.0539522 14.5481 0.00463867 14.796 0.00463867 15.0464C0.00463867 15.2967 0.0539522 15.5447 0.149763 15.776C0.245575 16.0073 0.386007 16.2174 0.563042 16.3944L13.4842 29.315C13.8416 29.6724 14.3264 29.8731 14.8318 29.8731C15.3372 29.8731 15.822 29.6724 16.1794 29.315L29.0403 16.4547C29.3977 16.0971 29.5985 15.6122 29.5985 15.1065C29.5985 14.6009 29.3977 14.116 29.0403 13.7583Z" fill="#DE4C36"/>
</svg>
