<svg width="120" height="30" viewBox="0 0 120 30" fill="none" xmlns="http://www.w3.org/2000/svg">
<g clip-path="url(#clip0_10_481)">
<path d="M47.3571 17.5713L53.9787 25.7142H48.75L42.8571 18.2358V25.7142H38.5713V4.28578H42.8571V16.8858L48.3 10.7142H53.7642L47.3571 17.5713ZM30.2142 10.2858C29.2759 10.2998 28.3549 10.5411 27.5301 10.9889C26.7054 11.4367 26.0015 12.0778 25.4787 12.8571V10.7142H21.4287V25.7142H25.7142V18.7071C25.6579 18.1985 25.707 17.6838 25.8582 17.1949C26.0094 16.7061 26.2597 16.2536 26.5934 15.8657C26.927 15.4777 27.337 15.1626 27.7977 14.9399C28.2584 14.7172 28.76 14.5918 29.2713 14.5713C31.7571 14.5713 32.1429 17.0142 32.1429 18.7071V25.7142H36.4287V17.7642C36.4287 13.05 34.8642 10.2858 30.3 10.2858H30.2142ZM68.5713 18.5571C68.5877 18.8712 68.5877 19.1859 68.5713 19.5H57.3213V19.65C57.504 20.5436 57.999 21.3429 58.7177 21.9044C59.4364 22.466 60.3317 22.7531 61.2429 22.7142C61.9658 22.7457 62.6875 22.6309 63.365 22.3769C64.0425 22.1229 64.6618 21.7347 65.1858 21.2358L68.0358 23.3787C67.1325 24.3004 66.046 25.0227 64.8465 25.4988C63.6469 25.9749 62.3609 26.1943 61.0713 26.1429C60.0034 26.2104 58.9334 26.0479 57.9336 25.6664C56.9338 25.285 56.0276 24.6934 55.276 23.9317C54.5244 23.1699 53.9451 22.2558 53.5771 21.251C53.2091 20.2461 53.061 19.1741 53.1429 18.1071C53.1209 17.0538 53.3162 16.0073 53.7164 15.0328C54.1167 14.0583 54.7133 13.1767 55.4692 12.4429C56.2252 11.7091 57.1241 11.1389 58.1101 10.7678C59.096 10.3966 60.1478 10.2326 61.2 10.2858C65.2287 10.2858 68.5713 13.1358 68.5713 18.5571ZM64.5858 16.7142C64.57 16.2898 64.468 15.873 64.2859 15.4892C64.1039 15.1055 63.8456 14.7628 63.5268 14.4821C63.208 14.2015 62.8355 13.9886 62.4318 13.8566C62.0281 13.7246 61.6017 13.6761 61.1787 13.7142C59.2943 13.5105 57.5878 14.8378 57.3213 16.7142H64.5858ZM4.28578 4.28578H0V25.7142H12.8571V21.4289H4.28578V4.28578ZM81.4287 4.28578H85.7142V25.7142H81.6642V24.2142C81.1499 24.8478 80.4945 25.3523 79.7503 25.6872C79.0062 26.0221 78.194 26.1781 77.3787 26.1429C76.3826 26.1173 75.4023 25.8883 74.498 25.4699C73.5937 25.0516 72.7846 24.4527 72.1202 23.7101C71.4559 22.9675 70.9505 22.0969 70.635 21.1517C70.3195 20.2066 70.2007 19.207 70.2858 18.2142C70.1846 17.2201 70.2915 16.2158 70.5996 15.2652C70.9077 14.3146 71.4103 13.4385 72.0755 12.6928C72.7406 11.947 73.5537 11.3479 74.463 10.9335C75.3723 10.5191 76.3579 10.2985 77.3571 10.2858C78.1014 10.2532 78.8446 10.369 79.5437 10.6265C80.2427 10.8841 80.8835 11.2781 81.4287 11.7858V4.28578ZM81.75 18.2142C81.8174 17.7194 81.7779 17.2159 81.6342 16.7376C81.4904 16.2594 81.2458 15.8175 80.9169 15.4418C80.5879 15.0661 80.1821 14.7653 79.727 14.5597C79.2719 14.3541 78.7781 14.2485 78.2787 14.25C76.2286 14.3988 74.6752 16.1618 74.7858 18.2142C74.6752 20.2666 76.2286 22.0298 78.2787 22.1787C78.7781 22.1802 79.272 22.0745 79.7271 21.8689C80.1822 21.6633 80.588 21.3625 80.917 20.9868C81.246 20.6111 81.4905 20.1692 81.6342 19.6909C81.778 19.2126 81.8174 18.7091 81.75 18.2142ZM17.1429 3.85711C16.4537 3.86688 15.7939 4.13778 15.2967 4.61513C14.7996 5.09248 14.502 5.7407 14.4642 6.42891C14.4642 7.90805 15.6635 9.10734 17.1429 9.10734C18.6223 9.10734 19.8211 7.90781 19.8211 6.42891C19.7832 5.74078 19.4857 5.09265 18.9886 4.61536C18.4915 4.13807 17.8317 3.86717 17.1427 3.85734M15 25.7142H19.2858V10.7142H15V25.7142ZM120 2.14289V27.8571C120 28.4254 119.774 28.9705 119.372 29.3724C118.97 29.7742 118.425 30 117.857 30H92.1429C91.5746 30 91.0295 29.7742 90.6276 29.3724C90.2258 28.9705 90 28.4254 90 27.8571V2.14289C90 1.57456 90.2258 1.02951 90.6276 0.627638C91.0295 0.225768 91.5746 0 92.1429 0L117.857 0C118.425 0 118.97 0.225768 119.372 0.627638C119.774 1.02951 120 1.57456 120 2.14289ZM98.5713 10.7142H94.2858V25.7142H98.5713V10.7142ZM99.1071 6.42867C99.1071 4.9493 97.9078 3.75 96.4287 3.75C94.9493 3.75 93.75 4.9493 93.75 6.42867C93.75 7.90781 94.9493 9.10711 96.4287 9.10711C97.9078 9.10711 99.1071 7.90781 99.1071 6.42867ZM115.714 17.7642C115.714 13.05 114.15 10.2858 109.586 10.2858C108.633 10.2859 107.695 10.5205 106.854 10.9689C106.013 11.4173 105.295 12.0658 104.764 12.8571V10.7142H100.714V25.7142H105V18.7071C104.944 18.1985 104.993 17.6838 105.144 17.1949C105.295 16.7061 105.545 16.2536 105.879 15.8657C106.213 15.4777 106.623 15.1626 107.083 14.9399C107.544 14.7172 108.046 14.5918 108.557 14.5713C111.043 14.5713 111.429 17.0142 111.429 18.7071V25.7142H115.714V17.7642Z" fill="#0A66C2"/>
</g>
<defs>
<clipPath id="clip0_10_481">
<rect width="120" height="30" fill="white"/>
</clipPath>
</defs>
</svg>
