<svg width="92" height="30" viewBox="0 0 92 30" fill="none" xmlns="http://www.w3.org/2000/svg">
<g clip-path="url(#clip0_10_488)">
<path d="M88.5814 18.3343L91.1179 20.0252C90.2947 21.2377 88.3257 23.318 84.9216 23.318C80.6945 23.318 77.5464 20.0475 77.5464 15.8869C77.5464 11.4596 80.7279 8.45605 84.5657 8.45605C88.4257 8.45605 90.3168 11.5262 90.9288 13.1837L91.2625 14.0293L81.3175 18.1452C82.0739 19.6359 83.2532 20.3923 84.9216 20.3923C86.5904 20.3923 87.7472 19.5691 88.5814 18.3343ZM80.7836 15.6536L87.4247 12.8946C87.0575 11.9714 85.9675 11.3152 84.6657 11.3152C83.0084 11.3152 80.7057 12.7836 80.7836 15.6536Z" fill="#FF302F"/>
<path d="M72.752 0.880554H75.9555V22.6395H72.752V0.880554Z" fill="#20B15A"/>
<path d="M67.7016 9.03447H70.7941V22.25C70.7941 27.7341 67.557 29.9923 63.7302 29.9923C60.1261 29.9923 57.957 27.5673 57.1448 25.5984L59.9814 24.4191C60.493 25.6316 61.7278 27.0668 63.7302 27.0668C66.1886 27.0668 67.7016 25.5427 67.7016 22.695V21.6272H67.5904C66.8561 22.517 65.4545 23.3179 63.6746 23.3179C59.9591 23.3179 56.555 20.0807 56.555 15.9093C56.555 11.7154 59.9591 8.44501 63.6746 8.44501C65.4434 8.44501 66.8561 9.23483 67.5904 10.1025H67.7016V9.03447ZM67.9239 15.9093C67.9239 13.2839 66.1775 11.3705 63.9527 11.3705C61.7055 11.3705 59.8145 13.2839 59.8145 15.9093C59.8145 18.5011 61.7055 20.3811 63.9527 20.3811C66.1777 20.3923 67.9241 18.5011 67.9241 15.9093" fill="#3686F7"/>
<path d="M38.9679 15.8536C38.9679 20.1364 35.6307 23.2845 31.537 23.2845C27.4434 23.2845 24.1061 20.1254 24.1061 15.8536C24.1061 11.5486 27.4434 8.41162 31.537 8.41162C35.6307 8.41162 38.9679 11.5486 38.9679 15.8536ZM35.7197 15.8536C35.7197 13.1839 33.7839 11.3482 31.537 11.3482C29.29 11.3482 27.3543 13.1839 27.3543 15.8536C27.3543 18.5011 29.29 20.3589 31.537 20.3589C33.7841 20.3589 35.7197 18.5011 35.7197 15.8536Z" fill="#FF302F"/>
<path d="M55.198 15.8869C55.198 20.1698 51.8607 23.3178 47.7671 23.3178C43.6734 23.3178 40.3362 20.1696 40.3362 15.8869C40.3362 11.5819 43.6734 8.45605 47.7671 8.45605C51.8607 8.45605 55.198 11.5709 55.198 15.8869ZM51.9386 15.8869C51.9386 13.2173 50.003 11.3816 47.7559 11.3816C45.5089 11.3816 43.5732 13.2173 43.5732 15.8869C43.5732 18.5344 45.5089 20.3923 47.7559 20.3923C50.0141 20.3923 51.9386 18.5234 51.9386 15.8869Z" fill="#FFBA40"/>
<path d="M11.8918 20.0586C7.23069 20.0586 3.58212 16.2986 3.58212 11.6375C3.58212 6.97662 7.23069 3.21662 11.8918 3.21662C14.4059 3.21662 16.2412 4.20662 17.5984 5.47483L19.8344 3.23894C17.9434 1.42572 15.4182 0.0460815 11.8918 0.0460815C5.50658 0.0462601 0.133545 5.25251 0.133545 11.6375C0.133545 18.0229 5.50658 23.2289 11.8918 23.2289C15.3403 23.2289 17.9434 22.0943 19.9791 19.9807C22.0703 17.8893 22.7155 14.9525 22.7155 12.572C22.7155 11.8266 22.6266 11.0591 22.5264 10.4918H11.8918V13.5843H19.4673C19.2448 15.52 18.633 16.8438 17.7319 17.7447C16.6418 18.8461 14.9177 20.0586 11.8918 20.0586Z" fill="#3686F7"/>
</g>
<defs>
<clipPath id="clip0_10_488">
<rect width="91.43" height="30" fill="white"/>
</clipPath>
</defs>
</svg>
