<svg width="817" height="126" viewBox="0 0 817 126" fill="none" xmlns="http://www.w3.org/2000/svg">
<path d="M91.5186 60.4531H97.7197L106.851 86.5518L115.981 60.4531H122.183L109.341 96H104.36L91.5186 60.4531ZM88.1738 60.4531H94.3506L95.4736 85.8926V96H88.1738V60.4531ZM119.351 60.4531H125.552V96H118.228V85.8926L119.351 60.4531ZM130.41 83.0605V82.5479C130.41 80.611 130.687 78.8288 131.24 77.2012C131.794 75.5573 132.599 74.1331 133.657 72.9287C134.715 71.7243 136.017 70.7884 137.563 70.1211C139.11 69.4375 140.884 69.0957 142.886 69.0957C144.888 69.0957 146.67 69.4375 148.232 70.1211C149.795 70.7884 151.105 71.7243 152.163 72.9287C153.237 74.1331 154.051 75.5573 154.604 77.2012C155.158 78.8288 155.435 80.611 155.435 82.5479V83.0605C155.435 84.9811 155.158 86.7633 154.604 88.4072C154.051 90.0348 153.237 91.459 152.163 92.6797C151.105 93.8841 149.803 94.82 148.257 95.4873C146.711 96.1546 144.937 96.4883 142.935 96.4883C140.933 96.4883 139.15 96.1546 137.588 95.4873C136.042 94.82 134.731 93.8841 133.657 92.6797C132.599 91.459 131.794 90.0348 131.24 88.4072C130.687 86.7633 130.41 84.9811 130.41 83.0605ZM137.441 82.5479V83.0605C137.441 84.1673 137.539 85.2008 137.734 86.1611C137.93 87.1214 138.239 87.9678 138.662 88.7002C139.102 89.4163 139.671 89.9779 140.371 90.3848C141.071 90.7917 141.925 90.9951 142.935 90.9951C143.911 90.9951 144.749 90.7917 145.449 90.3848C146.149 89.9779 146.711 89.4163 147.134 88.7002C147.557 87.9678 147.866 87.1214 148.062 86.1611C148.273 85.2008 148.379 84.1673 148.379 83.0605V82.5479C148.379 81.4736 148.273 80.4645 148.062 79.5205C147.866 78.5602 147.549 77.7139 147.109 76.9814C146.686 76.2327 146.125 75.6468 145.425 75.2236C144.725 74.8005 143.879 74.5889 142.886 74.5889C141.893 74.5889 141.047 74.8005 140.347 75.2236C139.663 75.6468 139.102 76.2327 138.662 76.9814C138.239 77.7139 137.93 78.5602 137.734 79.5205C137.539 80.4645 137.441 81.4736 137.441 82.5479ZM175.356 90.2383V58.5H182.437V96H176.064L175.356 90.2383ZM158.657 83.1094V82.5967C158.657 80.5785 158.885 78.7474 159.341 77.1035C159.797 75.4434 160.464 74.0192 161.343 72.8311C162.222 71.6429 163.304 70.7233 164.59 70.0723C165.876 69.4212 167.34 69.0957 168.984 69.0957C170.531 69.0957 171.882 69.4212 173.037 70.0723C174.209 70.7233 175.202 71.651 176.016 72.8555C176.846 74.0436 177.513 75.4515 178.018 77.0791C178.522 78.6904 178.888 80.4564 179.116 82.377V83.5C178.888 85.3392 178.522 87.0482 178.018 88.627C177.513 90.2057 176.846 91.5892 176.016 92.7773C175.202 93.9492 174.209 94.8607 173.037 95.5117C171.865 96.1628 170.498 96.4883 168.936 96.4883C167.292 96.4883 165.827 96.1546 164.541 95.4873C163.271 94.82 162.197 93.8841 161.318 92.6797C160.456 91.4753 159.797 90.0592 159.341 88.4316C158.885 86.804 158.657 85.0299 158.657 83.1094ZM165.688 82.5967V83.1094C165.688 84.1999 165.77 85.2171 165.933 86.1611C166.112 87.1051 166.396 87.9434 166.787 88.6758C167.194 89.3919 167.715 89.9535 168.35 90.3604C169.001 90.751 169.79 90.9463 170.718 90.9463C171.922 90.9463 172.915 90.6777 173.696 90.1406C174.478 89.5872 175.072 88.8304 175.479 87.8701C175.902 86.9098 176.146 85.8031 176.211 84.5498V81.3516C176.162 80.3262 176.016 79.4066 175.771 78.5928C175.544 77.7627 175.202 77.0547 174.746 76.4688C174.307 75.8828 173.753 75.4271 173.086 75.1016C172.435 74.776 171.662 74.6133 170.767 74.6133C169.855 74.6133 169.074 74.8249 168.423 75.248C167.772 75.6549 167.243 76.2165 166.836 76.9326C166.445 77.6488 166.152 78.4951 165.957 79.4717C165.778 80.432 165.688 81.4736 165.688 82.5967ZM200.088 96.4883C198.037 96.4883 196.198 96.1628 194.57 95.5117C192.943 94.8444 191.559 93.9248 190.42 92.7529C189.297 91.5811 188.434 90.222 187.832 88.6758C187.23 87.1133 186.929 85.4531 186.929 83.6953V82.7188C186.929 80.7168 187.214 78.8857 187.783 77.2256C188.353 75.5654 189.167 74.125 190.225 72.9043C191.299 71.6836 192.601 70.7477 194.131 70.0967C195.661 69.4294 197.386 69.0957 199.307 69.0957C201.178 69.0957 202.839 69.4049 204.287 70.0234C205.736 70.6419 206.948 71.5208 207.925 72.6602C208.918 73.7995 209.666 75.1667 210.171 76.7617C210.675 78.3405 210.928 80.0983 210.928 82.0352V84.9648H189.932V80.2773H204.019V79.7402C204.019 78.7637 203.84 77.8929 203.481 77.1279C203.14 76.3467 202.619 75.7282 201.919 75.2725C201.219 74.8167 200.324 74.5889 199.233 74.5889C198.306 74.5889 197.508 74.7923 196.841 75.1992C196.174 75.6061 195.628 76.1758 195.205 76.9082C194.798 77.6406 194.489 78.5033 194.277 79.4961C194.082 80.4727 193.984 81.5469 193.984 82.7188V83.6953C193.984 84.7533 194.131 85.7298 194.424 86.625C194.733 87.5202 195.164 88.2933 195.718 88.9443C196.287 89.5954 196.971 90.0999 197.769 90.458C198.582 90.8161 199.502 90.9951 200.527 90.9951C201.797 90.9951 202.977 90.751 204.067 90.2627C205.174 89.7581 206.126 89.0013 206.924 87.9922L210.342 91.7031C209.788 92.5007 209.032 93.2656 208.071 93.998C207.127 94.7305 205.988 95.3327 204.653 95.8047C203.319 96.2604 201.797 96.4883 200.088 96.4883ZM222.354 58.5V96H215.298V58.5H222.354ZM235.586 69.584V96H228.53V69.584H235.586ZM228.091 62.6992C228.091 61.6738 228.449 60.8275 229.165 60.1602C229.881 59.4928 230.841 59.1592 232.046 59.1592C233.234 59.1592 234.186 59.4928 234.902 60.1602C235.635 60.8275 236.001 61.6738 236.001 62.6992C236.001 63.7246 235.635 64.571 234.902 65.2383C234.186 65.9056 233.234 66.2393 232.046 66.2393C230.841 66.2393 229.881 65.9056 229.165 65.2383C228.449 64.571 228.091 63.7246 228.091 62.6992ZM248.281 75.2236V96H241.25V69.584H247.842L248.281 75.2236ZM247.256 81.8643H245.352C245.352 79.9111 245.604 78.1533 246.108 76.5908C246.613 75.012 247.321 73.6693 248.232 72.5625C249.144 71.4395 250.226 70.585 251.479 69.999C252.749 69.3968 254.165 69.0957 255.728 69.0957C256.965 69.0957 258.096 69.2747 259.121 69.6328C260.146 69.9909 261.025 70.5605 261.758 71.3418C262.507 72.123 263.076 73.1566 263.467 74.4424C263.874 75.7282 264.077 77.2988 264.077 79.1543V96H256.997V79.1299C256.997 77.958 256.834 77.0465 256.509 76.3955C256.183 75.7445 255.703 75.2887 255.068 75.0283C254.45 74.7516 253.685 74.6133 252.773 74.6133C251.829 74.6133 251.007 74.8005 250.308 75.1748C249.624 75.5492 249.054 76.07 248.599 76.7373C248.159 77.3883 247.826 78.1533 247.598 79.0322C247.37 79.9111 247.256 80.8551 247.256 81.8643ZM286.147 69.584H292.52V95.1211C292.52 97.5299 291.982 99.5726 290.908 101.249C289.85 102.942 288.369 104.219 286.465 105.082C284.561 105.961 282.347 106.4 279.824 106.4C278.717 106.4 277.546 106.254 276.309 105.961C275.088 105.668 273.916 105.212 272.793 104.594C271.686 103.975 270.758 103.194 270.01 102.25L273.11 98.0996C273.924 99.0436 274.868 99.776 275.942 100.297C277.017 100.834 278.205 101.103 279.507 101.103C280.776 101.103 281.851 100.867 282.729 100.395C283.608 99.9388 284.284 99.2633 284.756 98.3682C285.228 97.4893 285.464 96.4232 285.464 95.1699V75.6875L286.147 69.584ZM268.374 83.1094V82.5967C268.374 80.5785 268.618 78.7474 269.106 77.1035C269.611 75.4434 270.319 74.0192 271.23 72.8311C272.158 71.6429 273.281 70.7233 274.6 70.0723C275.918 69.4212 277.407 69.0957 279.067 69.0957C280.825 69.0957 282.298 69.4212 283.486 70.0723C284.674 70.7233 285.651 71.651 286.416 72.8555C287.181 74.0436 287.775 75.4515 288.198 77.0791C288.638 78.6904 288.979 80.4564 289.224 82.377V83.5C288.979 85.3392 288.613 87.0482 288.125 88.627C287.637 90.2057 286.994 91.5892 286.196 92.7773C285.399 93.9492 284.406 94.8607 283.218 95.5117C282.046 96.1628 280.646 96.4883 279.019 96.4883C277.391 96.4883 275.918 96.1546 274.6 95.4873C273.298 94.82 272.183 93.8841 271.255 92.6797C270.327 91.4753 269.611 90.0592 269.106 88.4316C268.618 86.804 268.374 85.0299 268.374 83.1094ZM275.405 82.5967V83.1094C275.405 84.1999 275.511 85.2171 275.723 86.1611C275.934 87.1051 276.26 87.9434 276.699 88.6758C277.155 89.3919 277.716 89.9535 278.384 90.3604C279.067 90.751 279.873 90.9463 280.801 90.9463C282.087 90.9463 283.136 90.6777 283.95 90.1406C284.764 89.5872 285.374 88.8304 285.781 87.8701C286.188 86.9098 286.424 85.8031 286.489 84.5498V81.3516C286.457 80.3262 286.318 79.4066 286.074 78.5928C285.83 77.7627 285.488 77.0547 285.049 76.4688C284.609 75.8828 284.04 75.4271 283.34 75.1016C282.64 74.776 281.81 74.6133 280.85 74.6133C279.922 74.6133 279.116 74.8249 278.433 75.248C277.765 75.6549 277.204 76.2165 276.748 76.9326C276.309 77.6488 275.975 78.4951 275.747 79.4717C275.519 80.432 275.405 81.4736 275.405 82.5967ZM324.697 90.043V78.2754C324.697 77.429 324.559 76.7048 324.282 76.1025C324.006 75.484 323.574 75.0039 322.988 74.6621C322.419 74.3203 321.678 74.1494 320.767 74.1494C319.985 74.1494 319.31 74.2878 318.74 74.5645C318.171 74.8249 317.731 75.2074 317.422 75.7119C317.113 76.2002 316.958 76.778 316.958 77.4453H309.927C309.927 76.3223 310.187 75.2562 310.708 74.2471C311.229 73.238 311.986 72.3509 312.979 71.5859C313.971 70.8047 315.151 70.1943 316.519 69.7549C317.902 69.3154 319.448 69.0957 321.157 69.0957C323.208 69.0957 325.031 69.4375 326.626 70.1211C328.221 70.8047 329.474 71.8301 330.386 73.1973C331.313 74.5645 331.777 76.2734 331.777 78.3242V89.6279C331.777 91.0765 331.867 92.2646 332.046 93.1924C332.225 94.1038 332.485 94.9014 332.827 95.585V96H325.723C325.381 95.2839 325.12 94.3887 324.941 93.3145C324.779 92.224 324.697 91.1335 324.697 90.043ZM325.625 79.9111L325.674 83.8906H321.743C320.815 83.8906 320.01 83.9964 319.326 84.208C318.643 84.4196 318.081 84.7207 317.642 85.1113C317.202 85.4857 316.877 85.9251 316.665 86.4297C316.47 86.9342 316.372 87.4876 316.372 88.0898C316.372 88.6921 316.51 89.2373 316.787 89.7256C317.064 90.1976 317.463 90.5719 317.983 90.8486C318.504 91.109 319.115 91.2393 319.814 91.2393C320.872 91.2393 321.792 91.0277 322.573 90.6045C323.354 90.1813 323.957 89.6605 324.38 89.042C324.819 88.4235 325.047 87.8376 325.063 87.2842L326.919 90.2627C326.659 90.93 326.3 91.6217 325.845 92.3379C325.405 93.054 324.844 93.7295 324.16 94.3643C323.477 94.9827 322.655 95.4954 321.694 95.9023C320.734 96.293 319.595 96.4883 318.276 96.4883C316.6 96.4883 315.078 96.1546 313.711 95.4873C312.36 94.8037 311.286 93.8678 310.488 92.6797C309.707 91.4753 309.316 90.1081 309.316 88.5781C309.316 87.1947 309.577 85.9658 310.098 84.8916C310.618 83.8174 311.383 82.9141 312.393 82.1816C313.418 81.4329 314.696 80.8714 316.226 80.4971C317.756 80.1064 319.53 79.9111 321.548 79.9111H325.625ZM344.082 75.2236V96H337.051V69.584H343.643L344.082 75.2236ZM343.057 81.8643H341.152C341.152 79.9111 341.405 78.1533 341.909 76.5908C342.414 75.012 343.122 73.6693 344.033 72.5625C344.945 71.4395 346.027 70.585 347.28 69.999C348.55 69.3968 349.966 69.0957 351.528 69.0957C352.765 69.0957 353.896 69.2747 354.922 69.6328C355.947 69.9909 356.826 70.5605 357.559 71.3418C358.307 72.123 358.877 73.1566 359.268 74.4424C359.674 75.7282 359.878 77.2988 359.878 79.1543V96H352.798V79.1299C352.798 77.958 352.635 77.0465 352.31 76.3955C351.984 75.7445 351.504 75.2887 350.869 75.0283C350.251 74.7516 349.486 74.6133 348.574 74.6133C347.63 74.6133 346.808 74.8005 346.108 75.1748C345.425 75.5492 344.855 76.07 344.399 76.7373C343.96 77.3883 343.626 78.1533 343.398 79.0322C343.171 79.9111 343.057 80.8551 343.057 81.8643ZM380.825 90.2383V58.5H387.905V96H381.533L380.825 90.2383ZM364.126 83.1094V82.5967C364.126 80.5785 364.354 78.7474 364.81 77.1035C365.265 75.4434 365.933 74.0192 366.812 72.8311C367.69 71.6429 368.773 70.7233 370.059 70.0723C371.344 69.4212 372.809 69.0957 374.453 69.0957C375.999 69.0957 377.35 69.4212 378.506 70.0723C379.678 70.7233 380.671 71.651 381.484 72.8555C382.314 74.0436 382.982 75.4515 383.486 77.0791C383.991 78.6904 384.357 80.4564 384.585 82.377V83.5C384.357 85.3392 383.991 87.0482 383.486 88.627C382.982 90.2057 382.314 91.5892 381.484 92.7773C380.671 93.9492 379.678 94.8607 378.506 95.5117C377.334 96.1628 375.967 96.4883 374.404 96.4883C372.76 96.4883 371.296 96.1546 370.01 95.4873C368.74 94.82 367.666 93.8841 366.787 92.6797C365.924 91.4753 365.265 90.0592 364.81 88.4316C364.354 86.804 364.126 85.0299 364.126 83.1094ZM371.157 82.5967V83.1094C371.157 84.1999 371.239 85.2171 371.401 86.1611C371.58 87.1051 371.865 87.9434 372.256 88.6758C372.663 89.3919 373.184 89.9535 373.818 90.3604C374.469 90.751 375.259 90.9463 376.187 90.9463C377.391 90.9463 378.384 90.6777 379.165 90.1406C379.946 89.5872 380.54 88.8304 380.947 87.8701C381.37 86.9098 381.615 85.8031 381.68 84.5498V81.3516C381.631 80.3262 381.484 79.4066 381.24 78.5928C381.012 77.7627 380.671 77.0547 380.215 76.4688C379.775 75.8828 379.222 75.4271 378.555 75.1016C377.904 74.776 377.131 74.6133 376.235 74.6133C375.324 74.6133 374.543 74.8249 373.892 75.248C373.241 75.6549 372.712 76.2165 372.305 76.9326C371.914 77.6488 371.621 78.4951 371.426 79.4717C371.247 80.432 371.157 81.4736 371.157 82.5967ZM424.795 86.6982C424.795 86.0635 424.697 85.4938 424.502 84.9893C424.323 84.4684 423.981 83.9964 423.477 83.5732C422.972 83.1338 422.264 82.7025 421.353 82.2793C420.441 81.8561 419.261 81.4167 417.812 80.9609C416.201 80.4401 414.671 79.8542 413.223 79.2031C411.79 78.5521 410.521 77.7952 409.414 76.9326C408.324 76.0537 407.461 75.0365 406.826 73.8809C406.208 72.7253 405.898 71.3825 405.898 69.8525C405.898 68.3714 406.224 67.0286 406.875 65.8242C407.526 64.6035 408.438 63.5618 409.609 62.6992C410.781 61.8203 412.165 61.1449 413.76 60.6729C415.371 60.2008 417.137 59.9648 419.058 59.9648C421.678 59.9648 423.965 60.4368 425.918 61.3809C427.871 62.3249 429.385 63.6188 430.459 65.2627C431.549 66.9066 432.095 68.7865 432.095 70.9023H424.819C424.819 69.8607 424.6 68.9492 424.16 68.168C423.737 67.3704 423.086 66.7438 422.207 66.2881C421.344 65.8324 420.254 65.6045 418.936 65.6045C417.666 65.6045 416.608 65.7998 415.762 66.1904C414.915 66.5648 414.281 67.0775 413.857 67.7285C413.434 68.3633 413.223 69.0794 413.223 69.877C413.223 70.4792 413.369 71.0244 413.662 71.5127C413.971 72.001 414.427 72.4567 415.029 72.8799C415.632 73.3031 416.372 73.7018 417.251 74.0762C418.13 74.4505 419.147 74.8167 420.303 75.1748C422.24 75.7607 423.94 76.4199 425.405 77.1523C426.886 77.8848 428.123 78.7067 429.116 79.6182C430.109 80.5296 430.858 81.5632 431.362 82.7188C431.867 83.8743 432.119 85.1846 432.119 86.6494C432.119 88.1956 431.818 89.5791 431.216 90.7998C430.614 92.0205 429.743 93.054 428.604 93.9004C427.464 94.7467 426.105 95.3896 424.526 95.8291C422.948 96.2686 421.182 96.4883 419.229 96.4883C417.471 96.4883 415.737 96.2604 414.028 95.8047C412.319 95.3327 410.765 94.6247 409.365 93.6807C407.982 92.7367 406.875 91.5322 406.045 90.0674C405.215 88.6025 404.8 86.8691 404.8 84.8672H412.148C412.148 85.974 412.319 86.9098 412.661 87.6748C413.003 88.4398 413.483 89.0583 414.102 89.5303C414.736 90.0023 415.485 90.3441 416.348 90.5557C417.227 90.7673 418.187 90.873 419.229 90.873C420.498 90.873 421.54 90.694 422.354 90.3359C423.184 89.9779 423.794 89.4814 424.185 88.8467C424.591 88.2119 424.795 87.4958 424.795 86.6982ZM435.537 83.0605V82.5479C435.537 80.611 435.814 78.8288 436.367 77.2012C436.921 75.5573 437.726 74.1331 438.784 72.9287C439.842 71.7243 441.144 70.7884 442.69 70.1211C444.237 69.4375 446.011 69.0957 448.013 69.0957C450.015 69.0957 451.797 69.4375 453.359 70.1211C454.922 70.7884 456.232 71.7243 457.29 72.9287C458.364 74.1331 459.178 75.5573 459.731 77.2012C460.285 78.8288 460.562 80.611 460.562 82.5479V83.0605C460.562 84.9811 460.285 86.7633 459.731 88.4072C459.178 90.0348 458.364 91.459 457.29 92.6797C456.232 93.8841 454.93 94.82 453.384 95.4873C451.838 96.1546 450.063 96.4883 448.062 96.4883C446.06 96.4883 444.277 96.1546 442.715 95.4873C441.169 94.82 439.858 93.8841 438.784 92.6797C437.726 91.459 436.921 90.0348 436.367 88.4072C435.814 86.7633 435.537 84.9811 435.537 83.0605ZM442.568 82.5479V83.0605C442.568 84.1673 442.666 85.2008 442.861 86.1611C443.057 87.1214 443.366 87.9678 443.789 88.7002C444.229 89.4163 444.798 89.9779 445.498 90.3848C446.198 90.7917 447.052 90.9951 448.062 90.9951C449.038 90.9951 449.876 90.7917 450.576 90.3848C451.276 89.9779 451.838 89.4163 452.261 88.7002C452.684 87.9678 452.993 87.1214 453.188 86.1611C453.4 85.2008 453.506 84.1673 453.506 83.0605V82.5479C453.506 81.4736 453.4 80.4645 453.188 79.5205C452.993 78.5602 452.676 77.7139 452.236 76.9814C451.813 76.2327 451.252 75.6468 450.552 75.2236C449.852 74.8005 449.006 74.5889 448.013 74.5889C447.02 74.5889 446.174 74.8005 445.474 75.2236C444.79 75.6468 444.229 76.2327 443.789 76.9814C443.366 77.7139 443.057 78.5602 442.861 79.5205C442.666 80.4645 442.568 81.4736 442.568 82.5479ZM473.843 96H466.763V67.2402C466.763 65.2383 467.153 63.5537 467.935 62.1865C468.732 60.8031 469.847 59.7614 471.279 59.0615C472.728 58.3454 474.445 57.9873 476.431 57.9873C477.082 57.9873 477.708 58.0361 478.311 58.1338C478.913 58.2152 479.499 58.321 480.068 58.4512L479.995 63.749C479.686 63.6676 479.36 63.6107 479.019 63.5781C478.677 63.5456 478.278 63.5293 477.822 63.5293C476.976 63.5293 476.252 63.6758 475.649 63.9688C475.063 64.2454 474.616 64.6605 474.307 65.2139C473.997 65.7673 473.843 66.4427 473.843 67.2402V96ZM479.116 69.584V74.5645H462.832V69.584H479.116ZM495.742 69.584V74.5645H480.361V69.584H495.742ZM484.17 63.0654H491.201V88.041C491.201 88.806 491.299 89.3919 491.494 89.7988C491.706 90.2057 492.015 90.4906 492.422 90.6533C492.829 90.7998 493.341 90.873 493.96 90.873C494.399 90.873 494.79 90.8568 495.132 90.8242C495.49 90.7754 495.791 90.7266 496.035 90.6777L496.06 95.8535C495.457 96.0488 494.806 96.2035 494.106 96.3174C493.407 96.4313 492.633 96.4883 491.787 96.4883C490.241 96.4883 488.89 96.236 487.734 95.7314C486.595 95.2106 485.716 94.3805 485.098 93.2412C484.479 92.1019 484.17 90.6045 484.17 88.749V63.0654ZM507.29 89.1641L512.783 69.584H517.251L515.811 77.2744L510.317 96H506.582L507.29 89.1641ZM504.507 69.584L508.438 89.1396L508.804 96H504.409L497.72 69.584H504.507ZM522.28 88.8223L526.113 69.584H532.925L526.235 96H521.865L522.28 88.8223ZM517.861 69.584L523.33 89.0176L524.087 96H520.327L514.834 77.2988L513.442 69.584H517.861ZM550.723 90.043V78.2754C550.723 77.429 550.584 76.7048 550.308 76.1025C550.031 75.484 549.6 75.0039 549.014 74.6621C548.444 74.3203 547.703 74.1494 546.792 74.1494C546.011 74.1494 545.335 74.2878 544.766 74.5645C544.196 74.8249 543.757 75.2074 543.447 75.7119C543.138 76.2002 542.983 76.778 542.983 77.4453H535.952C535.952 76.3223 536.213 75.2562 536.733 74.2471C537.254 73.238 538.011 72.3509 539.004 71.5859C539.997 70.8047 541.177 70.1943 542.544 69.7549C543.927 69.3154 545.474 69.0957 547.183 69.0957C549.233 69.0957 551.056 69.4375 552.651 70.1211C554.246 70.8047 555.5 71.8301 556.411 73.1973C557.339 74.5645 557.803 76.2734 557.803 78.3242V89.6279C557.803 91.0765 557.892 92.2646 558.071 93.1924C558.25 94.1038 558.511 94.9014 558.853 95.585V96H551.748C551.406 95.2839 551.146 94.3887 550.967 93.3145C550.804 92.224 550.723 91.1335 550.723 90.043ZM551.65 79.9111L551.699 83.8906H547.769C546.841 83.8906 546.035 83.9964 545.352 84.208C544.668 84.4196 544.106 84.7207 543.667 85.1113C543.228 85.4857 542.902 85.9251 542.69 86.4297C542.495 86.9342 542.397 87.4876 542.397 88.0898C542.397 88.6921 542.536 89.2373 542.812 89.7256C543.089 90.1976 543.488 90.5719 544.009 90.8486C544.53 91.109 545.14 91.2393 545.84 91.2393C546.898 91.2393 547.817 91.0277 548.599 90.6045C549.38 90.1813 549.982 89.6605 550.405 89.042C550.845 88.4235 551.073 87.8376 551.089 87.2842L552.944 90.2627C552.684 90.93 552.326 91.6217 551.87 92.3379C551.431 93.054 550.869 93.7295 550.186 94.3643C549.502 94.9827 548.68 95.4954 547.72 95.9023C546.759 96.293 545.62 96.4883 544.302 96.4883C542.625 96.4883 541.104 96.1546 539.736 95.4873C538.385 94.8037 537.311 93.8678 536.514 92.6797C535.732 91.4753 535.342 90.1081 535.342 88.5781C535.342 87.1947 535.602 85.9658 536.123 84.8916C536.644 83.8174 537.409 82.9141 538.418 82.1816C539.443 81.4329 540.721 80.8714 542.251 80.4971C543.781 80.1064 545.555 79.9111 547.573 79.9111H551.65ZM570.254 75.3457V96H563.223V69.584H569.839L570.254 75.3457ZM578.213 69.4131L578.091 75.9316C577.749 75.8828 577.334 75.8421 576.846 75.8096C576.374 75.7607 575.942 75.7363 575.552 75.7363C574.559 75.7363 573.696 75.8665 572.964 76.127C572.248 76.3711 571.646 76.7373 571.157 77.2256C570.685 77.7139 570.327 78.3079 570.083 79.0078C569.855 79.7077 569.725 80.5052 569.692 81.4004L568.276 80.9609C568.276 79.252 568.447 77.6813 568.789 76.249C569.131 74.8005 569.627 73.5391 570.278 72.4648C570.946 71.3906 571.759 70.5605 572.72 69.9746C573.68 69.3887 574.779 69.0957 576.016 69.0957C576.406 69.0957 576.805 69.1283 577.212 69.1934C577.619 69.2422 577.952 69.3154 578.213 69.4131ZM593.203 96.4883C591.152 96.4883 589.313 96.1628 587.686 95.5117C586.058 94.8444 584.674 93.9248 583.535 92.7529C582.412 91.5811 581.549 90.222 580.947 88.6758C580.345 87.1133 580.044 85.4531 580.044 83.6953V82.7188C580.044 80.7168 580.329 78.8857 580.898 77.2256C581.468 75.5654 582.282 74.125 583.34 72.9043C584.414 71.6836 585.716 70.7477 587.246 70.0967C588.776 69.4294 590.501 69.0957 592.422 69.0957C594.294 69.0957 595.954 69.4049 597.402 70.0234C598.851 70.6419 600.063 71.5208 601.04 72.6602C602.033 73.7995 602.782 75.1667 603.286 76.7617C603.791 78.3405 604.043 80.0983 604.043 82.0352V84.9648H583.047V80.2773H597.134V79.7402C597.134 78.7637 596.955 77.8929 596.597 77.1279C596.255 76.3467 595.734 75.7282 595.034 75.2725C594.334 74.8167 593.439 74.5889 592.349 74.5889C591.421 74.5889 590.623 74.7923 589.956 75.1992C589.289 75.6061 588.743 76.1758 588.32 76.9082C587.913 77.6406 587.604 78.5033 587.393 79.4961C587.197 80.4727 587.1 81.5469 587.1 82.7188V83.6953C587.1 84.7533 587.246 85.7298 587.539 86.625C587.848 87.5202 588.28 88.2933 588.833 88.9443C589.403 89.5954 590.086 90.0999 590.884 90.458C591.698 90.8161 592.617 90.9951 593.643 90.9951C594.912 90.9951 596.092 90.751 597.183 90.2627C598.289 89.7581 599.242 89.0013 600.039 87.9922L603.457 91.7031C602.904 92.5007 602.147 93.2656 601.187 93.998C600.243 94.7305 599.103 95.3327 597.769 95.8047C596.434 96.2604 594.912 96.4883 593.203 96.4883ZM644.79 90.2871V96H625.869V90.2871H644.79ZM628.262 60.4531V96H620.938V60.4531H628.262ZM642.324 74.9307V80.4971H625.869V74.9307H642.324ZM644.766 60.4531V66.1904H625.869V60.4531H644.766ZM655.508 75.2236V96H648.477V69.584H655.068L655.508 75.2236ZM654.482 81.8643H652.578C652.578 79.9111 652.83 78.1533 653.335 76.5908C653.84 75.012 654.548 73.6693 655.459 72.5625C656.37 71.4395 657.453 70.585 658.706 69.999C659.976 69.3968 661.392 69.0957 662.954 69.0957C664.191 69.0957 665.322 69.2747 666.348 69.6328C667.373 69.9909 668.252 70.5605 668.984 71.3418C669.733 72.123 670.303 73.1566 670.693 74.4424C671.1 75.7282 671.304 77.2988 671.304 79.1543V96H664.224V79.1299C664.224 77.958 664.061 77.0465 663.735 76.3955C663.41 75.7445 662.93 75.2887 662.295 75.0283C661.676 74.7516 660.911 74.6133 660 74.6133C659.056 74.6133 658.234 74.8005 657.534 75.1748C656.851 75.5492 656.281 76.07 655.825 76.7373C655.386 77.3883 655.052 78.1533 654.824 79.0322C654.596 79.9111 654.482 80.8551 654.482 81.8643ZM693.374 69.584H699.746V95.1211C699.746 97.5299 699.209 99.5726 698.135 101.249C697.077 102.942 695.596 104.219 693.691 105.082C691.787 105.961 689.574 106.4 687.051 106.4C685.944 106.4 684.772 106.254 683.535 105.961C682.314 105.668 681.143 105.212 680.02 104.594C678.913 103.975 677.985 103.194 677.236 102.25L680.337 98.0996C681.151 99.0436 682.095 99.776 683.169 100.297C684.243 100.834 685.431 101.103 686.733 101.103C688.003 101.103 689.077 100.867 689.956 100.395C690.835 99.9388 691.51 99.2633 691.982 98.3682C692.454 97.4893 692.69 96.4232 692.69 95.1699V75.6875L693.374 69.584ZM675.601 83.1094V82.5967C675.601 80.5785 675.845 78.7474 676.333 77.1035C676.838 75.4434 677.546 74.0192 678.457 72.8311C679.385 71.6429 680.508 70.7233 681.826 70.0723C683.145 69.4212 684.634 69.0957 686.294 69.0957C688.052 69.0957 689.525 69.4212 690.713 70.0723C691.901 70.7233 692.878 71.651 693.643 72.8555C694.408 74.0436 695.002 75.4515 695.425 77.0791C695.864 78.6904 696.206 80.4564 696.45 82.377V83.5C696.206 85.3392 695.84 87.0482 695.352 88.627C694.863 90.2057 694.22 91.5892 693.423 92.7773C692.625 93.9492 691.632 94.8607 690.444 95.5117C689.272 96.1628 687.873 96.4883 686.245 96.4883C684.618 96.4883 683.145 96.1546 681.826 95.4873C680.524 94.82 679.409 93.8841 678.481 92.6797C677.554 91.4753 676.838 90.0592 676.333 88.4316C675.845 86.804 675.601 85.0299 675.601 83.1094ZM682.632 82.5967V83.1094C682.632 84.1999 682.738 85.2171 682.949 86.1611C683.161 87.1051 683.486 87.9434 683.926 88.6758C684.382 89.3919 684.943 89.9535 685.61 90.3604C686.294 90.751 687.1 90.9463 688.027 90.9463C689.313 90.9463 690.363 90.6777 691.177 90.1406C691.991 89.5872 692.601 88.8304 693.008 87.8701C693.415 86.9098 693.651 85.8031 693.716 84.5498V81.3516C693.683 80.3262 693.545 79.4066 693.301 78.5928C693.057 77.7627 692.715 77.0547 692.275 76.4688C691.836 75.8828 691.266 75.4271 690.566 75.1016C689.867 74.776 689.036 74.6133 688.076 74.6133C687.148 74.6133 686.343 74.8249 685.659 75.248C684.992 75.6549 684.43 76.2165 683.975 76.9326C683.535 77.6488 683.201 78.4951 682.974 79.4717C682.746 80.432 682.632 81.4736 682.632 82.5967ZM712.637 69.584V96H705.581V69.584H712.637ZM705.142 62.6992C705.142 61.6738 705.5 60.8275 706.216 60.1602C706.932 59.4928 707.892 59.1592 709.097 59.1592C710.285 59.1592 711.237 59.4928 711.953 60.1602C712.686 60.8275 713.052 61.6738 713.052 62.6992C713.052 63.7246 712.686 64.571 711.953 65.2383C711.237 65.9056 710.285 66.2393 709.097 66.2393C707.892 66.2393 706.932 65.9056 706.216 65.2383C705.5 64.571 705.142 63.7246 705.142 62.6992ZM725.332 75.2236V96H718.301V69.584H724.893L725.332 75.2236ZM724.307 81.8643H722.402C722.402 79.9111 722.655 78.1533 723.159 76.5908C723.664 75.012 724.372 73.6693 725.283 72.5625C726.195 71.4395 727.277 70.585 728.53 69.999C729.8 69.3968 731.216 69.0957 732.778 69.0957C734.015 69.0957 735.146 69.2747 736.172 69.6328C737.197 69.9909 738.076 70.5605 738.809 71.3418C739.557 72.123 740.127 73.1566 740.518 74.4424C740.924 75.7282 741.128 77.2988 741.128 79.1543V96H734.048V79.1299C734.048 77.958 733.885 77.0465 733.56 76.3955C733.234 75.7445 732.754 75.2887 732.119 75.0283C731.501 74.7516 730.736 74.6133 729.824 74.6133C728.88 74.6133 728.058 74.8005 727.358 75.1748C726.675 75.5492 726.105 76.07 725.649 76.7373C725.21 77.3883 724.876 78.1533 724.648 79.0322C724.421 79.9111 724.307 80.8551 724.307 81.8643ZM758.633 96.4883C756.582 96.4883 754.743 96.1628 753.115 95.5117C751.488 94.8444 750.104 93.9248 748.965 92.7529C747.842 91.5811 746.979 90.222 746.377 88.6758C745.775 87.1133 745.474 85.4531 745.474 83.6953V82.7188C745.474 80.7168 745.758 78.8857 746.328 77.2256C746.898 75.5654 747.712 74.125 748.77 72.9043C749.844 71.6836 751.146 70.7477 752.676 70.0967C754.206 69.4294 755.931 69.0957 757.852 69.0957C759.723 69.0957 761.383 69.4049 762.832 70.0234C764.281 70.6419 765.493 71.5208 766.47 72.6602C767.463 73.7995 768.211 75.1667 768.716 76.7617C769.22 78.3405 769.473 80.0983 769.473 82.0352V84.9648H748.477V80.2773H762.563V79.7402C762.563 78.7637 762.384 77.8929 762.026 77.1279C761.685 76.3467 761.164 75.7282 760.464 75.2725C759.764 74.8167 758.869 74.5889 757.778 74.5889C756.851 74.5889 756.053 74.7923 755.386 75.1992C754.718 75.6061 754.173 76.1758 753.75 76.9082C753.343 77.6406 753.034 78.5033 752.822 79.4961C752.627 80.4727 752.529 81.5469 752.529 82.7188V83.6953C752.529 84.7533 752.676 85.7298 752.969 86.625C753.278 87.5202 753.709 88.2933 754.263 88.9443C754.832 89.5954 755.516 90.0999 756.313 90.458C757.127 90.8161 758.047 90.9951 759.072 90.9951C760.342 90.9951 761.522 90.751 762.612 90.2627C763.719 89.7581 764.671 89.0013 765.469 87.9922L768.887 91.7031C768.333 92.5007 767.576 93.2656 766.616 93.998C765.672 94.7305 764.533 95.3327 763.198 95.8047C761.864 96.2604 760.342 96.4883 758.633 96.4883ZM785.635 96.4883C783.584 96.4883 781.745 96.1628 780.117 95.5117C778.49 94.8444 777.106 93.9248 775.967 92.7529C774.844 91.5811 773.981 90.222 773.379 88.6758C772.777 87.1133 772.476 85.4531 772.476 83.6953V82.7188C772.476 80.7168 772.76 78.8857 773.33 77.2256C773.9 75.5654 774.714 74.125 775.771 72.9043C776.846 71.6836 778.148 70.7477 779.678 70.0967C781.208 69.4294 782.933 69.0957 784.854 69.0957C786.725 69.0957 788.385 69.4049 789.834 70.0234C791.283 70.6419 792.495 71.5208 793.472 72.6602C794.465 73.7995 795.213 75.1667 795.718 76.7617C796.222 78.3405 796.475 80.0983 796.475 82.0352V84.9648H775.479V80.2773H789.565V79.7402C789.565 78.7637 789.386 77.8929 789.028 77.1279C788.687 76.3467 788.166 75.7282 787.466 75.2725C786.766 74.8167 785.871 74.5889 784.78 74.5889C783.853 74.5889 783.055 74.7923 782.388 75.1992C781.72 75.6061 781.175 76.1758 780.752 76.9082C780.345 77.6406 780.036 78.5033 779.824 79.4961C779.629 80.4727 779.531 81.5469 779.531 82.7188V83.6953C779.531 84.7533 779.678 85.7298 779.971 86.625C780.28 87.5202 780.711 88.2933 781.265 88.9443C781.834 89.5954 782.518 90.0999 783.315 90.458C784.129 90.8161 785.049 90.9951 786.074 90.9951C787.344 90.9951 788.524 90.751 789.614 90.2627C790.721 89.7581 791.673 89.0013 792.471 87.9922L795.889 91.7031C795.335 92.5007 794.578 93.2656 793.618 93.998C792.674 94.7305 791.535 95.3327 790.2 95.8047C788.866 96.2604 787.344 96.4883 785.635 96.4883ZM807.51 75.3457V96H800.479V69.584H807.095L807.51 75.3457ZM815.469 69.4131L815.347 75.9316C815.005 75.8828 814.59 75.8421 814.102 75.8096C813.63 75.7607 813.198 75.7363 812.808 75.7363C811.815 75.7363 810.952 75.8665 810.22 76.127C809.504 76.3711 808.901 76.7373 808.413 77.2256C807.941 77.7139 807.583 78.3079 807.339 79.0078C807.111 79.7077 806.981 80.5052 806.948 81.4004L805.532 80.9609C805.532 79.252 805.703 77.6813 806.045 76.249C806.387 74.8005 806.883 73.5391 807.534 72.4648C808.201 71.3906 809.015 70.5605 809.976 69.9746C810.936 69.3887 812.035 69.0957 813.271 69.0957C813.662 69.0957 814.061 69.1283 814.468 69.1934C814.875 69.2422 815.208 69.3154 815.469 69.4131Z" fill="#FF9A62"/>
<path d="M42 33V32.5H41.5V33H42ZM321 33.5C321.276 33.5 321.5 33.2761 321.5 33C321.5 32.7239 321.276 32.5 321 32.5V33.5ZM42.5 126V33H41.5V126H42.5ZM42 33.5H321V32.5H42V33.5Z" fill="#FF9A62"/>
<path d="M25 18V15.5H22.5V18H25ZM304 20.5C305.381 20.5 306.5 19.3807 306.5 18C306.5 16.6193 305.381 15.5 304 15.5V20.5ZM27.5 111V18H22.5V111H27.5ZM25 20.5H304V15.5H25V20.5Z" fill="#FF9A62"/>
<path d="M5 5V0H0V5H5ZM284 10C286.761 10 289 7.76142 289 5C289 2.23858 286.761 0 284 0V10ZM10 98V5H0V98H10ZM5 10H284V0H5V10Z" fill="#FF9A62"/>
</svg>
