<svg width="30" height="30" viewBox="0 0 30 30" fill="none" xmlns="http://www.w3.org/2000/svg">
<g clip-path="url(#clip0_10_501)">
<path d="M22.9688 0H7.03125C3.148 0 0 3.148 0 7.03125V22.9688C0 26.852 3.148 30 7.03125 30H22.9688C26.852 30 30 26.852 30 22.9688V7.03125C30 3.148 26.852 0 22.9688 0Z" fill="#F4F2ED"/>
<path d="M4.87922 23.7936H8.60789V14.7382L3.28125 10.7433V22.1957C3.28125 23.0798 3.99773 23.7936 4.87922 23.7936Z" fill="#4285F4"/>
<path d="M21.392 23.7936H25.1208C26.005 23.7936 26.7188 23.0771 26.7188 22.1957V10.7432L21.392 14.7382" fill="#34A853"/>
<path d="M21.392 7.81348V14.7382L26.7188 10.7433V8.61234C26.7188 6.63621 24.4629 5.50957 22.8836 6.6948" fill="#FBBC04"/>
<path d="M8.608 14.7382V7.8136L15 12.6074L21.392 7.81336V14.7381L15 19.5322" fill="#EA4335"/>
<path d="M3.28125 8.61246V10.7432L8.60789 14.7382V7.8136L7.11645 6.69493C5.53441 5.50969 3.28125 6.63633 3.28125 8.61246Z" fill="#C5221F"/>
</g>
<defs>
<clipPath id="clip0_10_501">
<rect width="30" height="30" fill="white"/>
</clipPath>
</defs>
</svg>
