<svg width="37" height="49" viewBox="0 0 37 49" fill="none" xmlns="http://www.w3.org/2000/svg">
<path d="M37 17.15C37 14.8978 36.5215 12.6677 35.5918 10.587C34.6621 8.50625 33.2994 6.61564 31.5815 5.02312C29.8636 3.43059 27.8242 2.16733 25.5796 1.30547C23.3351 0.443598 20.9295 0 18.5 0C16.0705 0 13.6649 0.443598 11.4204 1.30547C9.17583 2.16733 7.13641 3.43059 5.41852 5.02312C3.70064 6.61564 2.33794 8.50625 1.40823 10.587C0.478516 12.6677 -3.62017e-08 14.8978 0 17.15C0 20.5482 1.08093 23.7087 2.92036 26.3743H2.89921L18.5 49L34.1008 26.3743H34.0823C35.9874 23.6219 37.0001 20.4203 37 17.15ZM18.5 24.5C16.3972 24.5 14.3805 23.7256 12.8937 22.3472C11.4068 20.9688 10.5714 19.0993 10.5714 17.15C10.5714 15.2007 11.4068 13.3312 12.8937 11.9528C14.3805 10.5744 16.3972 9.8 18.5 9.8C20.6028 9.8 22.6195 10.5744 24.1063 11.9528C25.5932 13.3312 26.4286 15.2007 26.4286 17.15C26.4286 19.0993 25.5932 20.9688 24.1063 22.3472C22.6195 23.7256 20.6028 24.5 18.5 24.5Z" fill="#FF9A62"/>
</svg>
